<?xml version="1.0" encoding="iso-8859-1"?>
<!-- Generator: Adobe Illustrator 18.0.0, SVG Export Plug-In . SVG Version: 6.00 Build 0)  -->
<!DOCTYPE svg PUBLIC "-//W3C//DTD SVG 1.1//EN" "http://www.w3.org/Graphics/SVG/1.1/DTD/svg11.dtd">
<svg version="1.1" id="Capa_1" xmlns="http://www.w3.org/2000/svg" xmlns:xlink="http://www.w3.org/1999/xlink" x="0px" y="0px"
	 viewBox="0 0 44 44" style="enable-background:new 0 0 44 44;" xml:space="preserve">
<path d="M22,0C9.869,0,0,9.869,0,22s9.869,22,22,22s22-9.869,22-22S34.131,0,22,0z M8,15c0-0.552,0.447-1,1-1h7c0.553,0,1,0.448,1,1
	s-0.447,1-1,1H9C8.447,16,8,15.552,8,15z M22,37c-6.617,0-12-5.383-12-12c0-0.552,0.447-1,1-1s1,0.448,1,1c0,5.514,4.486,10,10,10
	s10-4.486,10-10c0-0.552,0.447-1,1-1s1,0.448,1,1C34,31.617,28.617,37,22,37z M30.5,19c-1.933,0-3.5-1.567-3.5-3.5
	s1.567-3.5,3.5-3.5s3.5,1.567,3.5,3.5S32.433,19,30.5,19z"/>
<g>
</g>
<g>
</g>
<g>
</g>
<g>
</g>
<g>
</g>
<g>
</g>
<g>
</g>
<g>
</g>
<g>
</g>
<g>
</g>
<g>
</g>
<g>
</g>
<g>
</g>
<g>
</g>
<g>
</g>
</svg>
